<svg id="레이어_1" data-name="레이어 1" xmlns="http://www.w3.org/2000/svg" viewBox="0 0 325.07 193.43"><defs><style>.cls-1{fill:#fff;}.cls-2{fill:#f6b65a;}</style></defs><path class="cls-1" d="M92.65,14.86c-3,0-4.43.85-4.65,2.33-1.08,6.13,23.1,2.33,20.43,17.2-1.64,9.47-10.34,14-21.57,14h-83L5.54,39H89.27c3.34,0,5.73-1.08,6.07-3C96.42,29.82,72.18,34.07,75,18.46c1.53-8.68,9.76-13,20-13H116.5l-1.72,9.45Z"/><path class="cls-1" d="M112.35,47.35l7.21-40.87h33.32L151.18,16H131.25l-1,5.85h16.84l-1.65,9.54H128.58l-1.13,6.46h20.72l-1.7,9.54Z"/><path class="cls-1" d="M197.72,26.68c-2.44,13.91-13.16,21.74-25.25,21.74-12.83,0-20-7.94-17.54-21.85C157.14,13.74,167.3,5.4,180,5.4,194.6,5.4,199.65,15.86,197.72,26.68Zm-29.46,0c-.9,5.23-.45,11.75,6,11.75,5.78,0,8.91-5,10.1-11.75,1-5.56-.23-11.46-6.19-11.29-6.08,0-9,6.13-9.91,11.29Z"/><path class="cls-1" d="M207.49,6.48h13.4l-4.32,24.46c-.74,4-.51,7.49,5,7.49,4.82,0,6.75-3.06,7.55-7.49l4.31-24.46h13.4l-4.09,23.1c-2.33,13.11-9.37,18.84-22.93,18.84-12.66,0-18.85-4.82-16.41-18.9Z"/><path class="cls-1" d="M247.91,47.35l7.18-40.87h13.39L263,37.86h58.2l-1.7,9.54Z"/><path class="cls-2" d="M71,116.67,78.21,75.8h13.4L89.17,89.59h12.65l2.44-13.79h13.4l-7.21,40.87H97.06l2.78-15.81H87.18L84.4,116.7Z"/><path class="cls-2" d="M118.69,116.67l7.2-40.87h13.4l-7.17,40.87Z"/><path class="cls-2" d="M139.89,107.3,141.7,97h15.22l-1.83,10.33Z"/><path class="cls-1" d="M71,186l7.21-40.87h19.7c11.75,0,16.46,5.39,15,13.79-1.53,8.8-7.77,14.36-19.52,14.36H86.6L84.39,186Zm22.88-22.26c3.12,0,5.62-1.24,6.24-4.76.68-3.81-3.57-4.32-6.41-4.32H89.87l-1.59,9.08Z"/><path class="cls-1" d="M105.15,186,127,145.13h13.62L148.09,186H134.72l-.63-5.4H120.76l-2.5,5.4Zm26.39-28.56-6.75,14.65h8.45Z"/><path class="cls-1" d="M179.09,157a2.86,2.86,0,0,0-1.41-2.78,6.84,6.84,0,0,0-3.35-.74c-3,0-4.43.85-4.66,2.33-1.08,6.13,23.1,2.33,20.44,17.2-1.65,9.48-10.34,14.07-21.57,14.07-10.79,0-16.75-6.3-15.73-13.68h12.83a3.83,3.83,0,0,0,1.65,3.24,6.39,6.39,0,0,0,3.63,1c3.35,0,5.73-1.08,6.07-3,1.08-6.18-23.16-1.93-20.37-17.54,1.53-8.68,9.76-13.05,20-13.05,11.35,0,15.49,5.79,15.21,12.94Z"/><path class="cls-1" d="M220.09,157a2.87,2.87,0,0,0-1.42-2.78,6.84,6.84,0,0,0-3.35-.74c-3,0-4.43.85-4.65,2.33-1.08,6.13,23.1,2.33,20.43,17.2-1.64,9.48-10.33,14.07-21.57,14.07-10.78,0-16.74-6.3-15.72-13.68h12.78a3.79,3.79,0,0,0,1.64,3.24,6.42,6.42,0,0,0,3.64,1c3.34,0,5.73-1.08,6.07-3,1.08-6.18-23.16-1.93-20.38-17.54,1.53-8.68,9.76-13.05,20-13.05,11.35,0,15.5,5.79,15.21,12.94Z"/></svg>