<svg xmlns="http://www.w3.org/2000/svg" width="430.639" height="166.586" viewBox="0 0 430.639 166.586">
  <g id="LOGO" transform="translate(-29.77 -34.54)">
    <path id="패스_1" data-name="패스 1" d="M111.188,43.215c-2.751,0-4.062.779-4.264,2.137-.99,5.621,21.182,2.137,18.734,15.772-1.5,8.684-9.481,12.865-19.779,12.865H29.77l1.541-8.638h76.778c3.063,0,5.254-.99,5.566-2.751.99-5.667-21.237-1.77-18.688-16.084,1.4-7.959,8.95-11.966,18.339-11.966h19.752l-1.577,8.665Z" transform="translate(0 -0.001)" fill="#fff"/>
    <path id="패스_2" data-name="패스 2" d="M138.26,73.1l6.611-37.477h30.553l-1.559,8.739H155.591l-.917,5.364h15.442L168.6,58.471h-15.46l-1.036,5.924h19l-1.559,8.748Z" transform="translate(-9.008 -0.09)" fill="#fff"/>
    <path id="패스_3" data-name="패스 3" d="M220.037,54.053C217.8,66.808,207.97,73.988,196.884,73.988c-11.765,0-18.339-7.281-16.084-20.036,2.027-11.765,11.343-19.412,23-19.412C217.176,34.54,221.807,44.131,220.037,54.053Zm-27.014,0c-.825,4.8-.413,10.774,5.5,10.774,5.3,0,8.17-4.585,9.261-10.774.917-5.1-.211-10.508-5.676-10.353-5.575,0-8.253,5.621-9.087,10.353Z" transform="translate(-12.504)" fill="#fff"/>
    <path id="패스_4" data-name="패스 4" d="M233.017,35.62H245.3l-3.961,22.429c-.679,3.668-.468,6.868,4.585,6.868,4.42,0,6.19-2.806,6.923-6.868L256.8,35.62H269.09L265.34,56.8c-2.137,12.021-8.592,17.276-21.026,17.276-11.609,0-17.285-4.42-15.047-17.331Z" transform="translate(-16.525 -0.09)" fill="#fff"/>
    <path id="패스_5" data-name="패스 5" d="M273.82,73.1,280.4,35.62h12.278l-5.016,28.774L480.673,64.3l-1.559,8.748Z" transform="translate(-20.264 -0.09)" fill="#fff"/>
    <path id="패스_6" data-name="패스 6" d="M96.88,142.416l6.611-37.476h12.287l-2.237,12.645h11.6l2.237-12.645h12.287l-6.611,37.476H120.776l2.549-14.5H111.717l-2.549,14.525Z" transform="translate(-5.572 -5.845)" fill="#f6b65a"/>
    <path id="패스_7" data-name="패스 7" d="M144.57,142.416l6.6-37.476H163.46l-6.575,37.476Z" transform="translate(-9.532 -5.845)" fill="#f6b65a"/>
    <path id="패스_8" data-name="패스 8" d="M165.8,135.582l1.66-9.472h13.956l-1.678,9.472Z" transform="translate(-11.295 -7.603)" fill="#f6b65a"/>
    <path id="패스_9" data-name="패스 9" d="M96.88,211.747l6.611-37.477h18.064c10.774,0,15.093,4.942,13.755,12.645-1.4,8.069-7.125,13.168-17.9,13.168h-6.2l-2.026,11.664Zm20.98-20.412c2.861,0,5.153-1.137,5.722-4.365.624-3.494-3.274-3.961-5.878-3.961h-3.494l-1.458,8.326Z" transform="translate(-5.572 -11.602)" fill="#fff"/>
    <path id="패스_10" data-name="패스 10" d="M131.06,211.747,151.1,174.27h12.489l6.85,37.477h-12.26l-.578-4.952H145.374l-2.292,4.952Zm24.2-26.189-6.19,13.434h7.748Z" transform="translate(-8.41 -11.602)" fill="#fff"/>
    <path id="패스_11" data-name="패스 11" d="M202.809,185.055a2.623,2.623,0,0,0-1.293-2.549,6.263,6.263,0,0,0-3.072-.679c-2.751,0-4.062.779-4.273,2.137-.99,5.621,21.182,2.137,18.743,15.772-1.513,8.693-9.481,12.9-19.779,12.9-9.894,0-15.359-5.777-14.424-12.544h11.765a3.512,3.512,0,0,0,1.513,2.971,5.924,5.924,0,0,0,3.329.917c3.072,0,5.254-.99,5.566-2.751.99-5.667-21.237-1.77-18.679-16.084,1.4-7.959,8.95-11.966,18.339-11.966,10.408,0,14.2,5.309,13.947,11.866Z" transform="translate(-12.358 -11.511)" fill="#fff"/>
    <path id="패스_12" data-name="패스 12" d="M243.809,185.055a2.623,2.623,0,0,0-1.3-2.549,6.235,6.235,0,0,0-3.072-.679c-2.751,0-4.062.779-4.264,2.137-.99,5.621,21.182,2.137,18.734,15.772-1.5,8.693-9.472,12.9-19.779,12.9-9.885,0-15.35-5.777-14.415-12.544h11.719a3.484,3.484,0,0,0,1.5,2.971,5.979,5.979,0,0,0,3.338.917c3.063,0,5.254-.99,5.566-2.751.99-5.667-21.237-1.77-18.688-16.084,1.4-7.959,8.95-11.966,18.339-11.966,10.408,0,14.213,5.309,13.947,11.866Z" transform="translate(-15.762 -11.511)" fill="#fff"/>
  </g>
</svg>
