<?xml version="1.0" encoding="utf-8"?>
<!-- Generator: Adobe Illustrator 24.1.1, SVG Export Plug-In . SVG Version: 6.00 Build 0)  -->
<svg version="1.1" id="레이어_1" xmlns="http://www.w3.org/2000/svg" xmlns:xlink="http://www.w3.org/1999/xlink" x="0px"
	 y="0px" viewBox="0 0 568.8 54.7" enable-background="new 0 0 568.8 54.7" xml:space="preserve">
<g>
	<path fill="#4666E5" d="M93.8,15.4c-3,0-4.4,0.9-4.7,2.3c-1.1,6.1,23.1,2.3,20.4,17.2C107.9,44.4,99.3,49,88,49H5l1.7-9.4
		c0,0,76.9,0,83.7,0c3.3,0,5.7-1.1,6.1-3c1.1-6.2-23.2-1.9-20.4-17.5c1.5-8.7,9.8-13.1,20-13.1c8.6,0,21.5,0,21.5,0l-1.7,9.4H93.8z"
		/>
	<path fill="#4666E5" d="M113.5,47.9L120.7,7H154l-1.7,9.5h-19.9l-1,5.8h16.9l-1.6,9.5h-16.9l-1.1,6.4h20.7l-1.7,9.5H113.5z"/>
	<path fill="#4666E5" d="M198.9,27.2C196.4,41.1,185.7,49,173.6,49c-12.8,0-20-7.9-17.5-21.9c2.2-12.8,12.4-21.2,25.1-21.2
		C195.8,5.9,200.8,16.4,198.9,27.2z M169.4,27.2c-0.9,5.2-0.5,11.8,6,11.8c5.8,0,8.9-5,10.1-11.8c1-5.6-0.2-11.5-6.2-11.3
		C173.2,15.9,170.3,22.1,169.4,27.2z"/>
	<path fill="#4666E5" d="M208.7,7H222l-4.3,24.5c-0.7,4-0.5,7.5,5,7.5c4.8,0,6.8-3.1,7.5-7.5L234.6,7H248l-4.1,23.1
		C241.6,43.2,234.5,49,221,49c-12.7,0-18.8-4.8-16.4-18.9L208.7,7z"/>
	<path fill="#4666E5" d="M249.1,47.9L256.3,7h13.4l-5.5,31.3h18.4l-1.7,9.5H249.1z"/>
	<g>
		<path fill="#4666E5" d="M313.5,48.4l7.2-40.9h13.4l-2.4,13.8h12.7l2.4-13.8h13.4L353,48.4h-13.4l2.8-15.8h-12.7l-2.8,15.8H313.5z"
			/>
		<path fill="#4666E5" d="M361.2,48.4l7.2-40.9h13.4l-7.2,40.9H361.2z"/>
		<path fill="#4666E5" d="M382.5,39.1l1.8-10.3h15.2l-1.8,10.3H382.5z"/>
		<path fill="#4666E5" d="M401.1,48.4l7.2-40.9H428c11.8,0,16.5,5.4,15,13.8c-1.5,8.8-7.8,14.4-19.5,14.4h-6.8l-2.2,12.7H401.1z
			 M424,26.2c3.1,0,5.6-1.2,6.2-4.8c0.7-3.8-3.6-4.3-6.4-4.3H420l-1.6,9.1H424z"/>
		<path fill="#4666E5" d="M435.3,48.4l21.9-40.9h13.6l7.4,40.9h-13.3l-0.6-5.4h-13.3l-2.5,5.4H435.3z M461.7,19.9l-6.8,14.6h8.5
			L461.7,19.9z"/>
		<path fill="#4666E5" d="M509.2,19.4c0.1-1.4-0.6-2.3-1.4-2.8c-0.9-0.5-2-0.7-3.3-0.7c-3,0-4.4,0.9-4.7,2.3
			c-1.1,6.1,23.1,2.3,20.4,17.2c-1.6,9.5-10.3,14.1-21.6,14.1c-10.8,0-16.7-6.3-15.7-13.7h12.8c0.1,1.5,0.6,2.6,1.6,3.2
			c1,0.7,2.3,1,3.6,1c3.3,0,5.7-1.1,6.1-3c1.1-6.2-23.2-1.9-20.4-17.5c1.5-8.7,9.8-13.1,20-13.1c11.4,0,15.5,5.8,15.2,12.9H509.2z"
			/>
		<path fill="#4666E5" d="M550.2,19.4c0.1-1.4-0.6-2.3-1.4-2.8c-0.9-0.5-2-0.7-3.3-0.7c-3,0-4.4,0.9-4.7,2.3
			c-1.1,6.1,23.1,2.3,20.4,17.2c-1.6,9.5-10.3,14.1-21.6,14.1c-10.8,0-16.7-6.3-15.7-13.7h12.8c0.1,1.5,0.6,2.6,1.6,3.2
			c1,0.7,2.3,1,3.6,1c3.3,0,5.7-1.1,6.1-3c1.1-6.2-23.2-1.9-20.4-17.5c1.5-8.7,9.8-13.1,20-13.1c11.4,0,15.5,5.8,15.2,12.9H550.2z"
			/>
	</g>
</g>
</svg>
