<?xml version="1.0" encoding="utf-8"?>
<!-- Generator: Adobe Illustrator 24.1.1, SVG Export Plug-In . SVG Version: 6.00 Build 0)  -->
<svg version="1.1" id="레이어_1" xmlns="http://www.w3.org/2000/svg" xmlns:xlink="http://www.w3.org/1999/xlink" x="0px"
	 y="0px" viewBox="0 0 325.1 193.4" enable-background="new 0 0 325.1 193.4" xml:space="preserve">
<path fill="#FFFFFF" d="M92.6,14.9c-3,0-4.4,0.8-4.7,2.3c-1.1,6.1,23.1,2.3,20.4,17.2c-1.6,9.5-10.3,14-21.6,14h-83L5.5,39h83.7
	c3.3,0,5.7-1.1,6.1-3c1.1-6.2-23.2-1.9-20.4-17.5c1.5-8.7,9.8-13,20-13h21.5l-1.7,9.5H92.6z"/>
<path fill="#FFFFFF" d="M112.3,47.4l7.2-40.9h33.3l-1.7,9.5h-19.9l-1,5.8h16.8l-1.6,9.5h-16.9l-1.1,6.5h20.7l-1.7,9.5L112.3,47.4z"
	/>
<path fill="#FFFFFF" d="M197.7,26.7c-2.4,13.9-13.2,21.7-25.3,21.7c-12.8,0-20-7.9-17.5-21.9c2.2-12.8,12.4-21.2,25.1-21.2
	C194.6,5.4,199.6,15.9,197.7,26.7z M168.3,26.7c-0.9,5.2-0.4,11.8,6,11.8c5.8,0,8.9-5,10.1-11.8c1-5.6-0.2-11.5-6.2-11.3
	C172.1,15.4,169.2,21.5,168.3,26.7L168.3,26.7z"/>
<path fill="#FFFFFF" d="M207.5,6.5h13.4l-4.3,24.5c-0.7,4-0.5,7.5,5,7.5c4.8,0,6.8-3.1,7.6-7.5l4.3-24.5h13.4l-4.1,23.1
	c-2.3,13.1-9.4,18.8-22.9,18.8c-12.7,0-18.9-4.8-16.4-18.9L207.5,6.5z"/>
<path fill="#FFFFFF" d="M247.9,47.4l7.2-40.9h13.4L263,37.9h58.2l-1.7,9.5L247.9,47.4z"/>
<path fill="#F6B65A" d="M71,116.7l7.2-40.9h13.4l-2.4,13.8h12.7l2.4-13.8h13.4l-7.2,40.9H97.1l2.8-15.8H87.2l-2.8,15.8L71,116.7z"/>
<path fill="#F6B65A" d="M118.7,116.7l7.2-40.9h13.4l-7.2,40.9H118.7z"/>
<path fill="#F6B65A" d="M139.9,107.3l1.8-10.3h15.2l-1.8,10.3H139.9z"/>
<path fill="#FFFFFF" d="M71,186l7.2-40.9h19.7c11.8,0,16.5,5.4,15,13.8c-1.5,8.8-7.8,14.4-19.5,14.4h-6.8L84.4,186H71z M93.8,163.7
	c3.1,0,5.6-1.2,6.2-4.8c0.7-3.8-3.6-4.3-6.4-4.3h-3.8l-1.6,9.1H93.8z"/>
<path fill="#FFFFFF" d="M105.1,186l21.9-40.9h13.6l7.5,40.9h-13.4l-0.6-5.4h-13.3l-2.5,5.4H105.1z M131.5,157.4l-6.8,14.6h8.4
	L131.5,157.4z"/>
<path fill="#FFFFFF" d="M179.1,157c0.1-1.1-0.4-2.2-1.4-2.8c-1-0.5-2.2-0.8-3.4-0.7c-3,0-4.4,0.9-4.7,2.3
	c-1.1,6.1,23.1,2.3,20.4,17.2c-1.6,9.5-10.3,14.1-21.6,14.1c-10.8,0-16.8-6.3-15.7-13.7h12.8c0,1.3,0.6,2.5,1.6,3.2
	c1.1,0.7,2.3,1,3.6,1c3.4,0,5.7-1.1,6.1-3c1.1-6.2-23.2-1.9-20.4-17.5c1.5-8.7,9.8-13.1,20-13.1c11.4,0,15.5,5.8,15.2,12.9
	L179.1,157z"/>
<path fill="#FFFFFF" d="M220.1,157c0.1-1.1-0.4-2.2-1.4-2.8c-1-0.5-2.2-0.8-3.4-0.7c-3,0-4.4,0.9-4.6,2.3
	c-1.1,6.1,23.1,2.3,20.4,17.2c-1.6,9.5-10.3,14.1-21.6,14.1c-10.8,0-16.7-6.3-15.7-13.7h12.8c0,1.3,0.6,2.5,1.6,3.2
	c1.1,0.7,2.4,1,3.6,1c3.3,0,5.7-1.1,6.1-3c1.1-6.2-23.2-1.9-20.4-17.5c1.5-8.7,9.8-13.1,20-13.1c11.4,0,15.5,5.8,15.2,12.9
	L220.1,157z"/>
</svg>
