<?xml version="1.0" encoding="utf-8"?>
<!-- Generator: Adobe Illustrator 24.1.1, SVG Export Plug-In . SVG Version: 6.00 Build 0)  -->
<svg version="1.1" id="레이어_1" xmlns="http://www.w3.org/2000/svg" xmlns:xlink="http://www.w3.org/1999/xlink" x="0px"
	 y="0px" viewBox="0 0 355.6 56.4" enable-background="new 0 0 355.6 56.4" xml:space="preserve">
	<g>
	<polygon fill="#4666E5" points="98.6,6.3 86.9,31.8 84.2,6.3 68,6.3 62.5,37.7 8.4,37.7 6.7,47.2 63,47.2 63,47.2 72.8,47.2 
		75.3,33.4 76.1,27 76.6,21 76.7,21 79.5,47.2 88.8,47.2 100.9,21 101,21 99.1,28.4 97.8,34.7 95.5,47.2 107.6,47.2 114.8,6.3 	"/>
	<path fill="#4666E5" d="M139.8,47.2h-13.4l2.6-14.9l-10.6-26h15l4.6,13.8l9.5-13.8h14.8l-19.8,25.8L139.8,47.2z"/>
	<path fill="#4666E5" d="M177.3,47.2l7.2-40.9h19.7c11.8,0,16.5,5.4,15,13.8c-1.5,8.8-7.8,14.4-19.5,14.4h-6.8l-2.2,12.7H177.3z
		 M200.2,25c3.1,0,5.6-1.2,6.2-4.8c0.7-3.8-3.6-4.3-6.4-4.3h-3.8l-1.6,9.1H200.2z"/>
	<path fill="#4666E5" d="M211.5,47.2l21.9-40.9h13.6l7.4,40.9H241l-0.6-5.4h-13.3l-2.5,5.4H211.5z M237.9,18.7l-6.8,14.6h8.5
		L237.9,18.7z"/>
	<path fill="#4666E5" d="M298.5,47.3h-8.6l0.2-4c-2.7,2.6-6.8,5-13.2,5c-10.4,0-18.6-6.8-16.1-21c2.3-13.1,12-22,25.3-22
		c9.8,0,16.8,5.1,16.7,15.2H290c-0.3-3.3-2.5-5.2-6-5.2c-5.3,0-8.6,4.8-9.9,12c-1,5.8-0.1,11.1,6.6,11.1c2.7,0,6.5-1.9,7.7-4.7h-5.9
		l1.6-8.9h18.3L298.5,47.3z"/>
	<path fill="#4666E5" d="M306.6,47.2l7.2-40.9h33.3l-1.7,9.5h-19.9l-1,5.8h16.9l-1.6,9.5h-16.9l-1.1,6.4h20.7l-1.7,9.5H306.6z"/>
	</g>
</svg>
