<?xml version="1.0" encoding="utf-8"?>
<!-- Generator: Adobe Illustrator 24.1.1, SVG Export Plug-In . SVG Version: 6.00 Build 0)  -->
<svg version="1.1" id="레이어_1" xmlns="http://www.w3.org/2000/svg" xmlns:xlink="http://www.w3.org/1999/xlink" x="0px"
	 y="0px" viewBox="0 0 152 152" enable-background="new 0 0 152 152" xml:space="preserve">
<g>
	<path fill="#4666E5" d="M152,10v132c0,5.5-4.5,10-10,10H10c-5.5,0-10-4.5-10-10V10C0,4.5,4.5,0,10,0h132C147.5,0,152,4.5,152,10z"
		/>
	<path fill="#FFFFFF" d="M27.7,36.9h11.4l0.9-4.8c0,0-6.6,0-11.1,0c-5.2,0-9.5,2.2-10.3,6.7c-1.4,8,11,5.8,10.5,9
		c-0.2,1-1.4,1.5-3.1,1.5H0v4.8h24.7c5.8,0,10.2-2.4,11.1-7.2c1.4-7.6-11.1-5.7-10.5-8.8C25.4,37.3,26.2,36.9,27.7,36.9z"/>
	<path fill="#FFFFFF" d="M37.8,53.6l3.7-21h17.1l-0.9,4.9H47.5l-0.5,3h8.7l-0.8,4.9h-8.7l-0.6,3.3h10.6l-0.9,4.9H37.8z"/>
	<path fill="#FFFFFF" d="M81.6,43c-1.3,7.1-6.8,11.2-13,11.2c-6.6,0-10.3-4.1-9-11.2C60.8,36.3,66,32,72.6,32
		C80,32,82.6,37.4,81.6,43z M66.5,43c-0.5,2.7-0.2,6,3.1,6c3,0,4.6-2.6,5.2-6c0.5-2.9-0.1-5.9-3.2-5.8C68.5,37.2,67,40.3,66.5,43z"
		/>
	<path fill="#FFFFFF" d="M86.7,32.6h6.9l-2.2,12.6c-0.4,2.1-0.3,3.8,2.6,3.8c2.5,0,3.5-1.6,3.9-3.8l2.2-12.6h6.9l-2.1,11.9
		c-1.2,6.7-4.8,9.7-11.8,9.7c-6.5,0-9.7-2.5-8.4-9.7L86.7,32.6z"/>
	<path fill="#FFFFFF" d="M115.2,48.7l2.8-16.1h-6.9l-3.7,21H152v-4.9H115.2z"/>
	<path fill="#FFFFFF" d="M16.6,89.6l3.7-21h6.9l-1.3,7.1h6.5l1.3-7.1h6.9l-3.7,21h-6.9l1.4-8.1h-6.5l-1.4,8.1H16.6z"/>
	<path fill="#FFFFFF" d="M41,89.6l3.7-21h6.9l-3.7,21H41z"/>
	<path fill="#FFFFFF" d="M51.9,84.8l0.9-5.3h7.8l-0.9,5.3H51.9z"/>
	<g>
		<path fill="#FFFFFF" d="M16.6,123.1l3.7-21h10.1c6,0,8.5,2.8,7.7,7.1c-0.8,4.5-4,7.4-10,7.4h-3.5l-1.1,6.5H16.6z M28.3,111.7
			c1.6,0,2.9-0.6,3.2-2.4c0.3-2-1.8-2.2-3.3-2.2h-2l-0.8,4.7H28.3z"/>
		<path fill="#FFFFFF" d="M34.1,123.1l11.2-21h7l3.8,21h-6.8l-0.3-2.8h-6.8l-1.3,2.8H34.1z M47.7,108.4l-3.5,7.5h4.3L47.7,108.4z"/>
		<path fill="#FFFFFF" d="M72.1,108.2c0-0.7-0.3-1.2-0.7-1.4c-0.5-0.3-1-0.4-1.7-0.4c-1.5,0-2.3,0.4-2.4,1.2
			c-0.6,3.1,11.9,1.2,10.5,8.8c-0.8,4.9-5.3,7.2-11.1,7.2c-5.5,0-8.6-3.2-8.1-7h6.6c0,0.8,0.3,1.3,0.8,1.7c0.5,0.3,1.2,0.5,1.9,0.5
			c1.7,0,2.9-0.6,3.1-1.5c0.6-3.2-11.9-1-10.5-9c0.8-4.5,5-6.7,10.3-6.7c5.8,0,8,3,7.8,6.6H72.1z"/>
		<path fill="#FFFFFF" d="M93.1,108.2c0-0.7-0.3-1.2-0.7-1.4c-0.5-0.3-1-0.4-1.7-0.4c-1.5,0-2.3,0.4-2.4,1.2
			c-0.6,3.1,11.9,1.2,10.5,8.8c-0.8,4.9-5.3,7.2-11.1,7.2c-5.5,0-8.6-3.2-8.1-7h6.6c0,0.8,0.3,1.3,0.8,1.7c0.5,0.3,1.2,0.5,1.9,0.5
			c1.7,0,2.9-0.6,3.1-1.5c0.6-3.2-11.9-1-10.5-9c0.8-4.5,5-6.7,10.3-6.7c5.8,0,8,3,7.8,6.6H93.1z"/>
	</g>
</g>
</svg>
