<?xml version="1.0" encoding="utf-8"?>
<!-- Generator: Adobe Illustrator 24.1.1, SVG Export Plug-In . SVG Version: 6.00 Build 0)  -->
<svg version="1.1" id="레이어_1" xmlns="http://www.w3.org/2000/svg" xmlns:xlink="http://www.w3.org/1999/xlink" x="0px"
	 y="0px" viewBox="0 0 24 24" style="enable-background:new 0 0 24 24;" xml:space="preserve">
<style type="text/css">
	.st0{fill:#FFFFFF;}
	.st1{fill:#666666;}
	.st2{fill:#4666E5;}
	.st3{opacity:0.1;clip-path:url(#SVGID_2_);}
	.st4{fill:#F6B65A;}
	.st5{clip-path:url(#SVGID_4_);fill:#4666E5;}
</style>
<g>
	<defs>
		<rect id="SVGID_3_" width="24" height="24"/>
	</defs>
	<clipPath id="SVGID_2_">
		<use xlink:href="#SVGID_3_"  style="overflow:visible;"/>
	</clipPath>
	<path id="패스_99" style="clip-path:url(#SVGID_2_);fill:#4666E5;" d="M21.9,20.1L17.8,16c1.1-1.5,1.8-3.4,1.8-5.3
		c0-4.8-3.8-8.7-8.6-8.8c0,0-0.1,0-0.1,0C5.9,2,2,5.8,2,10.6c0,0,0,0.1,0,0.1c0,4.8,3.8,8.7,8.6,8.8c0,0,0.1,0,0.1,0
		c1.9,0,3.7-0.6,5.3-1.8l4.1,4.1L21.9,20.1z M4.5,10.8c0-3.4,2.7-6.2,6.1-6.3c0,0,0.1,0,0.1,0c3.4,0,6.2,2.7,6.3,6.1
		c0,0,0,0.1,0,0.1c0,3.4-2.7,6.2-6.1,6.3c0,0-0.1,0-0.1,0c-3.4,0-6.2-2.7-6.3-6.1C4.5,10.8,4.5,10.8,4.5,10.8z"/>
</g>
</svg>
