<svg xmlns="http://www.w3.org/2000/svg" viewBox="0 0 70.86 70.86"><defs><style>.cls-1{fill:#fff;}</style></defs><title>app_dashboard_icon</title><g id="레이어_2" data-name="레이어 2"><g id="레이어_1-2" data-name="레이어 1"><path class="cls-1" d="M46.43,40a9.06,9.06,0,1,0,9,9.06A9.06,9.06,0,0,0,46.43,40Zm0,12.94A3.88,3.88,0,1,1,50.31,49,3.88,3.88,0,0,1,46.43,52.9Z"/><path class="cls-1" d="M24.43,17.93a9,9,0,0,0-3.88.87V15.39a2.6,2.6,0,0,0-4.42-1.84,2.64,2.64,0,0,0-.75,1.84V33.47A2.57,2.57,0,0,0,18,36.05,2.62,2.62,0,0,0,20.09,35a9.06,9.06,0,1,0,4.34-17Zm0,13A3.89,3.89,0,0,1,20.55,27a3.91,3.91,0,0,1,3.88-3.88,3.89,3.89,0,1,1,0,7.77Z"/><path class="cls-1" d="M52.9,17.93a2.61,2.61,0,0,0-2.13,1.12,9.06,9.06,0,1,0-4.34,17A9.08,9.08,0,0,0,50.77,35a2.62,2.62,0,0,0,2.13,1.1,2.57,2.57,0,0,0,2.58-2.58V20.53A2.59,2.59,0,0,0,52.9,17.93ZM50.31,27a3.88,3.88,0,1,1-3.88-3.91A3.88,3.88,0,0,1,50.31,27Z"/><path class="cls-1" d="M33,46.42A2.59,2.59,0,0,1,28,47.51,3.88,3.88,0,0,0,20.55,49v6.49a2.59,2.59,0,1,1-5.17,0V42.55a2.6,2.6,0,0,1,.75-1.83A2.53,2.53,0,0,1,18,40a2.6,2.6,0,0,1,2.13,1.11A8.92,8.92,0,0,1,24.43,40a9,9,0,0,1,8.3,5.42A2.63,2.63,0,0,1,33,46.42Z"/><path class="cls-1" d="M35.43,0A35.43,35.43,0,1,0,70.86,35.43,35.43,35.43,0,0,0,35.43,0Zm0,67.32A31.89,31.89,0,1,1,67.32,35.43,31.89,31.89,0,0,1,35.43,67.32Z"/></g></g></svg>