<svg id="레이어_1" data-name="레이어 1" xmlns="http://www.w3.org/2000/svg" xmlns:xlink="http://www.w3.org/1999/xlink" viewBox="0 0 24 24"><defs><style>.cls-1{fill:none;}.cls-2{clip-path:url(#clip-path);}.cls-3{fill:#4666e5;}</style><clipPath id="clip-path"><rect class="cls-1" width="24" height="24"/></clipPath></defs><g class="cls-2"><path id="패스_99" data-name="패스 99" class="cls-3" d="M21.87,20.13,17.75,16a8.57,8.57,0,0,0,1.75-5.25A8.7,8.7,0,0,0,10.86,2h-.11A8.7,8.7,0,0,0,2,10.64v.11a8.7,8.7,0,0,0,8.64,8.75h.11A8.57,8.57,0,0,0,16,17.75l4.13,4.13ZM4.5,10.75A6.19,6.19,0,0,1,10.63,4.5h.12A6.19,6.19,0,0,1,17,10.63v.12A6.19,6.19,0,0,1,10.87,17h-.12A6.19,6.19,0,0,1,4.5,10.87Z"/></g></svg>