<svg id="레이어_1" data-name="레이어 1" xmlns="http://www.w3.org/2000/svg" xmlns:xlink="http://www.w3.org/1999/xlink" viewBox="0 0 265.19 265.19"><defs><style>.cls-1{fill:none;}.cls-2{clip-path:url(#clip-path);}.cls-3{opacity:0.1;}.cls-4{fill:#fff;}</style><clipPath id="clip-path"><rect class="cls-1" width="265.19" height="265.19"/></clipPath></defs><title>Subway</title><g class="cls-2"><g class="cls-3"><path class="cls-4" d="M233.88,199.61a17.26,17.26,0,0,0,4.42-13.12l-13.05-155a19,19,0,0,0-18.81-17.29H58.75A19,19,0,0,0,39.94,31.52l-13.06,155A17.06,17.06,0,0,0,44,205.12H72.25L31.69,251H50.38l21.88-24.72H193.1L215,251h18.69l-40.56-45.84h28.06A17.28,17.28,0,0,0,233.88,199.61ZM43.09,188.78a1.17,1.17,0,0,1-.26-.95l13.05-155a3.14,3.14,0,0,1,2.87-2.64H206.44a3.14,3.14,0,0,1,2.87,2.64l13.05,155a1.17,1.17,0,0,1-.26.95,1.19,1.19,0,0,1-.93.34H44A1.19,1.19,0,0,1,43.09,188.78Zm137.62,23.46H84.65l6.3-7.12h83.46Z"/><circle class="cls-4" cx="86.06" cy="152.51" r="11.3"/><circle class="cls-4" cx="179.71" cy="152.51" r="11.3"/><path class="cls-4" d="M197.48,64.28A13.5,13.5,0,0,0,184.1,52h-103A13.51,13.51,0,0,0,67.69,64.28l-3.79,46A12.52,12.52,0,0,0,76.46,124H188.72a12.54,12.54,0,0,0,12.56-13.64ZM80.14,108l3.3-40h98.29l3.3,40Z"/></g></g></svg>